<?xml version="1.0" encoding="UTF-8" standalone="no"?>
<svg
   xmlns:dc="http://purl.org/dc/elements/1.1/"
   xmlns:cc="http://creativecommons.org/ns#"
   xmlns:rdf="http://www.w3.org/1999/02/22-rdf-syntax-ns#"
   xmlns:svg="http://www.w3.org/2000/svg"
   xmlns="http://www.w3.org/2000/svg"
   id="svg8"
   preserveAspectRatio="xMidYMid meet"
   viewBox="0 0 699.9353 701.23572"
   height="701.23572pt"
   width="699.9353pt"
   version="1.0">
  <defs
     id="defs12" />
  <metadata
     id="metadata2">
Created by potrace 1.10, written by Peter Selinger 2001-2011
<rdf:RDF>
  <cc:Work
     rdf:about="">
    <dc:format>image/svg+xml</dc:format>
    <dc:type
       rdf:resource="http://purl.org/dc/dcmitype/StillImage" />
    <dc:title></dc:title>
  </cc:Work>
</rdf:RDF>
</metadata>
  <g
     style="fill:#61b948;fill-opacity:1;stroke:none"
     id="g6"
     transform="matrix(0.24085868,0,0,-0.24085868,-11.320358,712.07435)">
    <path
       style="fill:#61b948;fill-opacity:1"
       id="path4"
       d="M 1331,2950 C 767,2879 294,2494 116,1960 64,1803 47,1689 47,1500 47,1357 51,1306 69,1220 196,625 625,196 1220,69 c 150,-32 410,-32 560,0 595,127 1024,556 1151,1151 18,86 22,137 22,280 0,143 -4,194 -22,280 -127,595 -562,1030 -1151,1150 -120,24 -335,34 -449,20 z m 1006,-579 c 43,-33 96,-75 118,-95 l 40,-35 -94,-88 c -84,-78 -251,-267 -251,-284 0,-3 19,-12 43,-19 92,-27 162,-81 224,-171 70,-103 105,-273 84,-411 -22,-143 -68,-246 -162,-358 -50,-60 -194,-178 -205,-167 -3,3 0,22 6,43 18,52 7,136 -25,189 -82,141 -275,166 -390,50 -45,-45 -75,-115 -75,-175 0,-88 56,-181 132,-218 25,-13 36,-23 27,-26 -108,-35 -322,-40 -509,-13 -124,18 -307,62 -435,103 -97,32 -296,125 -341,159 l -33,26 33,52 c 44,68 133,246 162,323 12,33 40,134 62,225 70,285 151,461 267,574 108,106 232,164 397,185 147,20 333,-19 457,-95 59,-35 140,-120 162,-169 7,-14 15,-26 19,-26 14,0 99,197 135,310 46,145 55,170 66,170 4,0 43,-27 86,-59 z" />
  </g>
</svg>
