<?xml version="1.0" standalone="no"?>
<!DOCTYPE svg PUBLIC "-//W3C//DTD SVG 20010904//EN"
 "http://www.w3.org/TR/2001/REC-SVG-20010904/DTD/svg10.dtd">
<svg version="1.0" xmlns="http://www.w3.org/2000/svg"
 width="935.000000pt" height="935.000000pt" viewBox="0 0 935.000000 935.000000"
 preserveAspectRatio="xMidYMid meet">
<metadata>
Created by potrace 1.11, written by Peter Selinger 2001-2013
</metadata>
<g transform="translate(0.000000,935.000000) scale(0.100000,-0.100000)"
fill="#000000" stroke="none">
<path d="M4289 9346 c-2 -2 -40 -7 -84 -10 -44 -4 -111 -12 -150 -17 -38 -6
-81 -12 -95 -14 -14 -2 -25 -4 -25 -5 0 -1 -13 -3 -30 -5 -40 -5 -211 -40
-310 -65 -44 -11 -91 -23 -105 -26 -68 -15 -432 -134 -445 -145 -5 -5 -14 -9
-21 -9 -29 0 -446 -186 -452 -202 -2 -4 -11 -8 -21 -8 -9 0 -21 -4 -27 -9 -5
-5 -38 -25 -74 -44 -139 -73 -200 -110 -383 -233 -65 -43 -126 -83 -135 -89
-9 -5 -19 -13 -22 -16 -3 -3 -45 -37 -95 -74 -49 -37 -99 -76 -110 -87 -11
-10 -31 -28 -45 -39 -96 -80 -153 -132 -292 -269 -87 -85 -161 -163 -164 -173
-3 -9 -10 -15 -15 -12 -5 4 -9 3 -9 -2 0 -4 -16 -26 -36 -48 -19 -22 -45 -53
-57 -68 -12 -16 -33 -42 -47 -58 -34 -39 -41 -48 -75 -94 -30 -40 -52 -68 -70
-89 -5 -7 -14 -19 -20 -28 -5 -9 -53 -81 -105 -160 -114 -172 -113 -171 -145
-228 -14 -25 -34 -61 -46 -80 -21 -36 -92 -171 -94 -180 -1 -3 -27 -58 -58
-122 -32 -64 -57 -123 -57 -130 0 -8 -4 -18 -9 -24 -5 -5 -27 -56 -49 -114
-22 -58 -43 -114 -48 -125 -4 -11 -8 -23 -9 -27 -2 -5 -3 -9 -5 -10 -1 -2 -3
-10 -5 -18 -2 -8 -18 -58 -35 -110 -29 -88 -84 -281 -96 -340 -3 -14 -9 -41
-14 -60 -5 -19 -12 -55 -15 -80 -4 -24 -8 -47 -10 -50 -2 -4 -7 -29 -10 -56
-4 -27 -8 -60 -11 -74 -4 -25 -13 -99 -19 -155 -15 -131 -20 -296 -19 -650 1
-373 5 -493 20 -580 3 -16 8 -48 10 -70 3 -22 12 -74 20 -115 8 -41 17 -90 20
-109 2 -19 7 -38 10 -43 3 -4 8 -21 11 -36 8 -41 11 -57 13 -57 1 0 3 -7 5
-15 4 -18 25 -101 29 -115 1 -5 8 -30 15 -55 44 -158 119 -375 186 -535 46
-111 120 -271 128 -276 5 -3 9 -10 9 -15 -1 -13 80 -168 144 -281 36 -62 176
-287 183 -293 3 -3 26 -34 51 -70 24 -36 50 -71 57 -78 7 -7 13 -17 13 -20 0
-4 10 -18 23 -32 12 -14 29 -34 37 -46 16 -22 82 -103 115 -140 11 -12 38 -44
60 -70 91 -108 406 -413 517 -499 7 -5 45 -35 83 -65 127 -100 310 -230 325
-230 4 0 10 -4 12 -8 12 -28 460 -272 663 -361 55 -24 119 -52 142 -62 24 -11
49 -19 57 -19 8 0 17 -4 20 -8 6 -10 470 -163 536 -176 22 -5 56 -13 123 -31
16 -5 25 -7 87 -20 14 -3 36 -8 50 -11 50 -10 66 -13 105 -18 22 -3 50 -7 63
-10 13 -3 50 -8 83 -11 33 -4 69 -8 80 -10 137 -27 897 -26 1114 1 22 3 51 7
65 8 14 2 50 7 80 10 30 4 69 10 85 13 17 3 40 7 53 7 12 1 22 5 22 9 0 5 4 6
9 3 4 -3 23 -1 42 4 19 6 48 13 64 16 27 5 111 26 267 68 65 18 323 101 353
115 11 5 58 23 105 41 47 18 91 37 98 42 6 6 12 8 12 5 0 -6 81 30 227 99 40
19 77 34 82 34 5 0 11 4 13 8 2 4 41 27 88 51 47 25 87 48 88 53 2 4 8 8 14 8
6 0 60 30 120 68 60 37 116 72 126 77 37 23 109 71 147 99 154 114 157 117
225 171 54 44 85 69 170 144 72 62 350 337 350 346 0 3 12 18 28 33 15 15 43
47 62 71 19 23 46 56 60 72 38 44 42 49 105 134 33 44 62 82 66 85 3 3 23 32
44 65 22 33 43 61 47 63 5 2 8 8 8 14 0 5 11 24 25 42 14 18 25 38 25 44 0 7
4 12 9 12 5 0 14 14 21 30 7 17 16 30 21 30 5 0 9 4 9 10 0 5 14 33 31 62 59
100 182 337 232 448 36 80 107 253 109 268 2 10 5 19 8 22 9 8 98 270 125 370
23 79 85 327 89 348 2 15 5 27 6 27 1 0 3 9 5 20 1 11 6 36 10 55 9 44 13 73
20 130 3 25 8 56 10 70 27 139 27 1119 1 1245 -2 11 -7 43 -10 70 -12 86 -16
111 -41 222 -22 100 -36 158 -70 288 -11 44 -44 151 -67 220 -11 33 -21 65
-23 70 -1 6 -5 18 -9 27 -4 9 -9 22 -10 30 -2 7 -7 22 -11 33 -4 11 -19 49
-33 85 -13 36 -31 81 -39 100 -9 19 -21 49 -28 65 -31 75 -100 222 -113 243
-8 12 -11 22 -7 22 5 0 2 8 -6 18 -8 9 -25 40 -39 67 -13 28 -27 52 -30 55 -3
3 -11 19 -18 35 -8 17 -24 46 -36 65 -12 19 -40 64 -61 100 -45 78 -161 254
-189 291 -12 14 -28 36 -36 49 -17 26 -208 269 -224 286 -6 6 -45 48 -86 94
-118 131 -288 297 -400 390 -29 25 -65 55 -79 67 -42 36 -43 37 -157 122 -60
45 -116 87 -124 94 -8 7 -28 18 -43 26 -15 8 -27 18 -27 23 0 4 -7 8 -15 8 -8
0 -15 4 -15 9 0 5 -8 11 -17 15 -10 3 -67 37 -128 76 -60 38 -115 70 -122 70
-6 0 -13 4 -15 8 -5 12 -296 162 -315 162 -7 0 -13 5 -13 10 0 6 -3 9 -7 8 -5
-1 -35 11 -68 26 -70 32 -333 137 -355 141 -8 2 -16 4 -17 5 -2 2 -6 3 -10 4
-5 1 -66 21 -138 44 -157 49 -217 66 -229 63 -4 -1 -14 4 -22 10 -8 6 -14 9
-14 6 0 -3 -15 -1 -32 4 -18 5 -67 17 -108 25 -41 9 -79 17 -85 18 -41 10 -85
18 -115 21 -19 2 -35 4 -35 5 0 1 -9 3 -20 4 -51 7 -134 17 -170 20 -145 15
-186 19 -230 22 -68 5 -712 14 -716 10z m2826 -1701 c10 -5 26 -14 35 -21 8
-7 53 -40 100 -73 47 -33 90 -63 95 -68 6 -5 39 -31 75 -58 154 -118 292 -230
361 -297 22 -20 39 -34 39 -31 0 3 9 -4 20 -17 27 -31 26 -37 -12 -68 -105
-89 -513 -492 -638 -631 -36 -40 -78 -87 -95 -105 -16 -18 -48 -54 -70 -81
-22 -26 -47 -55 -56 -64 -62 -62 -209 -260 -203 -275 4 -11 50 -34 82 -41 8
-2 21 -7 30 -11 20 -9 18 -8 62 -18 19 -5 41 -12 50 -17 8 -4 47 -22 85 -40
66 -29 164 -85 175 -100 3 -3 10 -8 17 -10 28 -10 198 -170 246 -232 12 -15
30 -38 41 -50 62 -74 157 -237 195 -337 12 -30 26 -64 31 -75 8 -17 29 -83 59
-190 5 -16 14 -59 21 -95 6 -36 14 -72 17 -80 3 -8 7 -33 9 -55 2 -22 6 -56
10 -75 9 -58 12 -351 3 -415 -4 -33 -10 -80 -13 -105 -3 -25 -10 -63 -15 -84
-6 -22 -8 -44 -5 -48 3 -4 1 -8 -3 -8 -5 0 -9 -8 -10 -17 -2 -22 -11 -77 -14
-80 -1 -2 -2 -6 -3 -10 -29 -110 -83 -268 -104 -300 -8 -13 -12 -23 -8 -23 6
0 -94 -200 -104 -210 -3 -3 -19 -27 -35 -55 -16 -27 -32 -54 -37 -60 -4 -5
-29 -39 -54 -75 -107 -150 -203 -254 -377 -409 -148 -132 -363 -291 -394 -291
-19 0 -16 48 8 143 33 126 30 287 -7 417 -8 30 -16 60 -18 65 -7 29 -60 135
-67 135 -5 0 -9 5 -9 11 0 6 -14 30 -32 53 -124 161 -284 262 -476 301 -74 16
-218 21 -274 10 -16 -3 -40 -7 -54 -10 -34 -5 -150 -44 -178 -59 -62 -33 -167
-109 -213 -154 -105 -104 -199 -277 -228 -420 -16 -80 -25 -242 -14 -242 4 0
9 -17 12 -37 9 -70 28 -127 68 -208 58 -117 71 -136 166 -229 78 -78 75 -76
168 -128 44 -25 85 -54 92 -65 13 -19 9 -21 -74 -41 -103 -25 -178 -39 -248
-47 -27 -3 -79 -9 -115 -13 -36 -4 -93 -8 -127 -7 -35 0 -63 -2 -63 -5 0 -8
-448 -5 -456 2 -3 4 -17 3 -30 -2 -13 -5 -24 -6 -24 -2 0 4 -17 8 -37 8 -57 1
-224 13 -254 19 -14 2 -53 6 -87 7 -34 2 -62 5 -62 8 0 3 -15 7 -32 8 -18 1
-58 7 -88 12 -30 5 -68 12 -85 14 -16 3 -55 10 -85 16 -30 6 -71 13 -90 16
-19 3 -42 7 -50 10 -8 3 -26 8 -40 10 -30 5 -149 31 -205 45 -22 5 -53 12 -70
15 -16 3 -53 12 -82 20 -29 8 -65 17 -80 20 -15 3 -53 12 -83 21 -59 18 -65
19 -95 26 -11 3 -45 12 -76 21 -31 9 -65 19 -75 21 -42 9 -260 78 -277 87 -10
5 -26 11 -36 13 -10 2 -39 13 -64 24 -25 12 -49 21 -52 21 -3 0 -25 9 -48 19
-23 11 -45 20 -49 20 -4 1 -46 19 -92 41 -46 21 -87 36 -90 32 -3 -3 -6 0 -6
6 0 7 -4 12 -9 12 -6 0 -61 24 -123 53 -62 30 -131 62 -153 72 -22 11 -43 24
-47 29 -4 6 -8 7 -8 3 0 -5 -14 1 -30 13 -17 12 -30 18 -30 15 0 -3 -13 3 -29
14 -16 12 -32 21 -35 21 -10 0 -111 64 -114 72 -2 4 -9 8 -15 8 -7 1 -34 20
-62 44 l-49 44 37 56 c20 31 37 60 37 65 0 5 4 11 8 13 9 3 93 142 138 228 16
30 34 58 39 62 6 4 6 8 2 8 -5 0 0 12 11 28 10 15 40 70 66 122 26 52 51 102
56 110 5 8 21 41 36 73 14 31 31 60 36 63 5 3 7 11 5 18 -3 7 4 23 14 37 10
13 19 29 19 35 0 6 10 31 23 55 49 92 139 337 163 444 4 17 9 35 13 40 3 6 6
15 7 20 1 6 11 46 24 90 12 44 23 89 24 100 2 11 6 27 9 35 7 15 26 91 53 210
9 36 18 72 21 80 3 8 7 20 8 26 2 5 13 48 25 95 12 46 23 90 23 97 0 6 4 12 9
12 5 0 7 4 3 9 -3 5 -1 20 4 33 11 28 45 142 43 145 -1 2 5 18 14 38 8 19 11
35 8 35 -4 0 -2 6 4 13 5 6 13 28 17 47 4 19 14 48 21 65 7 16 27 71 45 120
17 50 40 109 50 132 11 23 19 45 19 48 0 3 14 36 31 73 64 140 103 217 114
224 5 4 7 8 3 8 -7 0 69 136 116 205 14 22 32 48 39 58 15 23 118 158 132 173
92 101 194 199 270 259 28 22 52 43 55 46 20 26 298 191 316 188 4 0 10 3 13
8 5 7 54 29 186 83 76 31 280 87 380 103 17 3 48 8 70 12 22 3 51 8 65 11 105
17 374 23 500 10 137 -14 166 -18 220 -31 14 -3 43 -8 64 -10 21 -3 42 -8 46
-10 4 -2 20 -6 36 -9 31 -6 228 -62 254 -73 8 -3 18 -5 23 -5 4 1 7 -3 7 -8 0
-6 7 -10 15 -10 16 0 166 -60 175 -70 3 -3 32 -18 65 -35 66 -32 168 -96 173
-107 2 -5 7 -8 12 -8 22 0 232 -203 315 -305 31 -38 73 -99 92 -135 68 -122
87 -140 108 -102 18 33 130 257 131 262 0 3 11 28 23 55 26 56 141 334 146
350 1 6 8 26 16 45 7 19 12 38 11 43 -1 4 2 7 6 7 5 0 9 6 10 13 0 6 23 78 51
159 28 81 52 155 54 165 1 10 5 23 8 28 8 12 28 75 33 101 6 27 81 225 100
261 16 31 24 33 61 18z"/>
</g>
</svg>
